<svg id="Capa_1" enable-background="new 0 0 505.654 505.654" height="512" viewBox="0 0 505.654 505.654" width="512" xmlns="http://www.w3.org/2000/svg"><g><path d="m484.441.01-152.316 152.316-2.351 11.789 12.938-1.209 84.882-70.741 67.43-81.572z" fill="#fff5f5"/><path d="m495.024 10.593-152.316 152.316-1.367 11.997 11.997-1.367 152.316-152.316z" fill="#d3dce3"/><path d="m342.712 162.906-53.009-53.01-73.158 73.158 83.74 22.278 28.315-14.174z" fill="#3f617f"/><path d="m342.712 162.906-42.427 42.426 23.374 82.739 72.108-72.109z" fill="#294865"/><path d="m196.106 186.235c-40.593 10.683-82.688 36.307-118.535 72.153-35.847 35.847-61.472 77.943-72.154 118.535-11.427 43.422-4.645 80.418 19.097 104.18l152.414-138.271 123.357-137.5c-23.761-23.741-60.757-30.524-104.179-19.097z" fill="#ffc24c"/><path d="m319.429 309.559c9.722-36.941 7.956-77.127-19.145-104.228l-275.77 275.772c26.979 26.979 67.003 28.94 104.226 19.145 83.963-22.097 168.581-106.69 190.689-190.689z" fill="#ff9935"/><path d="m223.32 219.271c-63.423 39.227-145.616 121.408-184.868 184.866-23.363 37.772-27.922 62.948-13.938 76.965l149.582-135.44 126.189-140.33c-14.018-13.982-39.193-9.424-76.965 13.939z" fill="#fce867"/><path d="m286.392 282.345c23.376-37.795 27.93-62.979 13.916-76.99-.008-.008-.016-.015-.023-.023l-275.771 275.77c.008.008.015.017.023.024 5.274 5.275 12.13 7.919 20.648 7.919 14.108 0 32.774-7.258 56.341-21.834 63.411-39.219 145.617-121.405 184.866-184.866z" fill="#ffc24c"/></g></svg>