<?xml version="1.0"?>
<svg xmlns="http://www.w3.org/2000/svg" width="512" height="512" viewBox="0 0 128 128"><g><path d="M64,50.125A13.875,13.875,0,1,0,77.875,64,13.89,13.89,0,0,0,64,50.125Zm0,24.25A10.375,10.375,0,1,1,74.375,64,10.386,10.386,0,0,1,64,74.375Z"/><path d="M128,64a1.748,1.748,0,0,0-.586-1.307,101.005,101.005,0,0,0-14.9-10.965A13.714,13.714,0,0,0,109.179,39.6,14.723,14.723,0,0,0,88.405,18.821a13.726,13.726,0,0,0-12.134-3.339A100.979,100.979,0,0,0,65.307.586a1.806,1.806,0,0,0-2.614,0,100.979,100.979,0,0,0-10.964,14.9A13.726,13.726,0,0,0,39.6,18.821,14.723,14.723,0,0,0,18.821,39.6a13.726,13.726,0,0,0-3.339,12.134A100.979,100.979,0,0,0,.586,62.693a1.751,1.751,0,0,0,0,2.614,100.979,100.979,0,0,0,14.9,10.964,13.726,13.726,0,0,0,3.339,12.134A14.723,14.723,0,0,0,39.6,109.179a13.726,13.726,0,0,0,12.134,3.339,100.979,100.979,0,0,0,10.964,14.9,1.751,1.751,0,0,0,2.614,0,100.979,100.979,0,0,0,10.964-14.9,13.726,13.726,0,0,0,12.134-3.339,14.723,14.723,0,0,0,20.774-20.774,13.714,13.714,0,0,0,3.338-12.133,101.005,101.005,0,0,0,14.9-10.965A1.748,1.748,0,0,0,128,64ZM79.066,18.687a10.288,10.288,0,0,1,7.952,3.746,1.746,1.746,0,0,0,1.318.634,1.678,1.678,0,0,0,1.34-.588,11.225,11.225,0,1,1,15.845,15.845,1.751,1.751,0,0,0,.046,2.658,10.182,10.182,0,0,1,3.679,9.058,16.112,16.112,0,0,0-6.319-1.712,15.574,15.574,0,0,0-4.331.623A17.137,17.137,0,0,0,79.049,29.4a15.574,15.574,0,0,0,.623-4.331,16.112,16.112,0,0,0-1.712-6.319A10.211,10.211,0,0,1,79.066,18.687Zm4.343,57.9A12.614,12.614,0,0,1,77.473,75.1,1.766,1.766,0,0,0,75.1,77.473,12.585,12.585,0,0,1,57.913,94.424l-.014-.009a12.581,12.581,0,0,1-5-16.942A1.766,1.766,0,0,0,50.527,75.1a12.591,12.591,0,1,1,0-22.208A1.764,1.764,0,0,0,52.9,50.527a12.586,12.586,0,0,1,5.081-16.989L58,33.522A12.59,12.59,0,0,1,75.1,50.527,1.764,1.764,0,0,0,77.473,52.9a12.591,12.591,0,1,1,5.936,23.695ZM94.073,51.983a16.006,16.006,0,0,0-10.664-4.074c-.29,0-.58.01-.869.026l3.785-3.785a1.75,1.75,0,1,0-2.475-2.475L80.065,45.46c.016-.289.026-.579.026-.869a16.006,16.006,0,0,0-4.074-10.664A13.635,13.635,0,0,1,94.073,51.983ZM64,28.5a16.047,16.047,0,0,0-3.852.485A66.122,66.122,0,0,1,64,22.773a64.41,64.41,0,0,1,3.83,6.206A16.046,16.046,0,0,0,64,28.5ZM51.983,33.927a16.006,16.006,0,0,0-4.074,10.664c0,.29.01.58.026.869L44.15,41.675a1.75,1.75,0,1,0-2.475,2.475l3.785,3.785c-.289-.016-.579-.026-.869-.026a16,16,0,0,0-10.653,4.064c-.086-.19-.181-.376-.259-.57a13.635,13.635,0,0,1,18.3-17.476Zm-23,33.9A64.41,64.41,0,0,1,22.773,64a66.122,66.122,0,0,1,6.212-3.849,15.533,15.533,0,0,0-.006,7.679Zm4.7,8.77c.078-.194.173-.38.259-.57a16,16,0,0,0,10.653,4.064c.29,0,.58-.01.869-.026L41.675,83.85a1.75,1.75,0,0,0,2.475,2.475l3.785-3.785c-.016.289-.026.579-.026.869a16.006,16.006,0,0,0,4.074,10.664A13.635,13.635,0,0,1,33.679,76.6ZM64,99.5a16.046,16.046,0,0,0,3.827-.479A64.41,64.41,0,0,1,64,105.227a66.122,66.122,0,0,1-3.849-6.212A16.047,16.047,0,0,0,64,99.5Zm12.017-5.427a16.006,16.006,0,0,0,4.074-10.664c0-.29-.01-.58-.026-.869l3.785,3.785a1.75,1.75,0,1,0,2.475-2.475L82.54,80.065c.289.016.579.026.869.026a16.006,16.006,0,0,0,10.664-4.074A13.635,13.635,0,0,1,76.017,94.073Zm23-33.925A66.122,66.122,0,0,1,105.227,64a64.41,64.41,0,0,1-6.206,3.83,15.533,15.533,0,0,0-.006-7.679ZM64,4.424a91.593,91.593,0,0,1,9.848,13.909c.011.02.021.041.033.06,1.37,2.552,2.291,4.918,2.291,6.68a12.134,12.134,0,0,1-1.39,5.578,17.037,17.037,0,0,0-1.563.772c-.25-.175-.508-.338-.768-.5-1-3.606-5.173-9.635-7.035-12.211A1.75,1.75,0,0,0,64,17.988h0a1.75,1.75,0,0,0-1.418.724c-1.891,2.612-6.1,8.684-7.057,12.228-.251.156-.5.313-.742.483a17.037,17.037,0,0,0-1.563-.772,12.134,12.134,0,0,1-1.39-5.578c0-1.762.924-4.133,2.3-6.688l.022-.04A91.777,91.777,0,0,1,64,4.424ZM18.687,48.934a10.288,10.288,0,0,1,3.746-7.952,1.751,1.751,0,0,0,.046-2.658A11.225,11.225,0,1,1,38.324,22.479a1.693,1.693,0,0,0,1.34.588,1.746,1.746,0,0,0,1.318-.634,10.182,10.182,0,0,1,9.058-3.679,16.112,16.112,0,0,0-1.712,6.319,15.574,15.574,0,0,0,.623,4.331A17.137,17.137,0,0,0,29.4,48.951a15.574,15.574,0,0,0-4.331-.623,16.112,16.112,0,0,0-6.319,1.712A10.211,10.211,0,0,1,18.687,48.934Zm-.354,5.218.06-.032c2.551-1.371,4.918-2.292,6.68-2.292a12.15,12.15,0,0,1,5.549,1.349,17.248,17.248,0,0,0,.8,1.6c-.17.242-.327.491-.483.742-3.544.96-9.616,5.166-12.228,7.057a1.75,1.75,0,0,0,0,2.836c2.576,1.862,8.605,6.032,12.211,7.035.161.26.324.518.5.768a17.248,17.248,0,0,0-.8,1.6,12.15,12.15,0,0,1-5.549,1.349c-1.763,0-4.134-.924-6.689-2.3l-.038-.02A91.841,91.841,0,0,1,4.424,64,91.643,91.643,0,0,1,18.333,54.152Zm30.6,55.161a10.288,10.288,0,0,1-7.952-3.746,1.746,1.746,0,0,0-1.318-.634,1.777,1.777,0,0,0-1.34.588A11.225,11.225,0,1,1,22.479,89.676a1.751,1.751,0,0,0-.046-2.658,10.182,10.182,0,0,1-3.679-9.058,16.112,16.112,0,0,0,6.319,1.712,15.574,15.574,0,0,0,4.331-.623A17.137,17.137,0,0,0,48.951,98.6a15.574,15.574,0,0,0-.623,4.331,16.112,16.112,0,0,0,1.712,6.319A10.211,10.211,0,0,1,48.934,109.313ZM64,123.576a91.7,91.7,0,0,1-9.848-13.908c-.011-.021-.021-.041-.033-.061-1.37-2.552-2.291-4.918-2.291-6.68a12.134,12.134,0,0,1,1.39-5.578,17.037,17.037,0,0,0,1.563-.772c.242.17.491.327.742.483.96,3.544,5.166,9.616,7.057,12.228a1.75,1.75,0,0,0,1.418.724h0a1.75,1.75,0,0,0,1.418-.725c1.862-2.576,6.032-8.605,7.035-12.211.26-.161.518-.324.768-.5a17.037,17.037,0,0,0,1.563.772,12.134,12.134,0,0,1,1.39,5.578c0,1.763-.924,4.134-2.3,6.689l-.02.037A91.732,91.732,0,0,1,64,123.576Zm45.313-44.51a10.288,10.288,0,0,1-3.746,7.952,1.751,1.751,0,0,0-.046,2.658,11.225,11.225,0,1,1-15.845,15.845,1.751,1.751,0,0,0-2.658.046,10.182,10.182,0,0,1-9.058,3.679,16.112,16.112,0,0,0,1.712-6.319,15.574,15.574,0,0,0-.623-4.331A17.137,17.137,0,0,0,98.6,79.049a15.574,15.574,0,0,0,4.331.623,16.112,16.112,0,0,0,6.319-1.712A10.2,10.2,0,0,1,109.313,79.066Zm.354-5.218-.061.033c-2.551,1.37-4.918,2.291-6.679,2.291a12.134,12.134,0,0,1-5.578-1.39,17.037,17.037,0,0,0-.772-1.563c.175-.25.338-.508.5-.768,3.606-1,9.635-5.173,12.211-7.035a1.75,1.75,0,0,0,0-2.836c-2.612-1.891-8.684-6.1-12.228-7.057-.156-.251-.313-.5-.483-.742a17.037,17.037,0,0,0,.772-1.563,12.134,12.134,0,0,1,5.578-1.39c1.762,0,4.133.924,6.687,2.3l.039.021A91.8,91.8,0,0,1,123.576,64,91.643,91.643,0,0,1,109.667,73.848Z"/></g></svg>
