<svg id="Capa_1" enable-background="new 0 0 511 511" height="512" viewBox="0 0 511 511" width="512" xmlns="http://www.w3.org/2000/svg"><g><path d="m255.5 0h-105c-33.083 0-60 26.915-60 60 0 .101 0 1.601 0 1.5v389.5c0 33.083 26.915 60 60 60h105l10-254.751c-.016-.408.461 11.805-10-256.249z" fill="#294865"/><path d="m255.5 511h105c33.083 0 60-26.915 60-60 0-5.246 0-9.754 0-15 0-15.258 0-346.156 0-377 0-29.155-21.011-53.839-49.158-59-14.003 0-101.746 0-115.842 0z" fill="#15314c"/><path d="m120.5 91.5v329.5h135l10-164.75-10-164.75c-16.333 0-118.559 0-135 0z" fill="#fff5f5"/><path d="m390.5 91.5c-16.333 0-118.559 0-135 0v329.5h135c0-18.288 0-311.212 0-329.5z" fill="#d3dce3"/><path d="m180.5 331h-30v60h60v-30h-30z" fill="#99cdff"/><path d="m330.5 361c-10.492 0-19.508 0-30 0v30h60c0-7.259 0-52.693 0-60-10.492 0-19.508 0-30 0z" fill="#629df5"/><path d="m300.5 151h30v30h30c0-7.259 0-52.693 0-60-7.259 0-52.693 0-60 0z" fill="#629df5"/><path d="m180.5 151h30v-30h-60v60h30z" fill="#99cdff"/><path d="m240.5 211v30c-10.492 0-19.508 0-30 0v30h30v30h15l10-45-10-45c-5.246 0-9.754 0-15 0z" fill="#fe6664"/><path d="m270.5 271h30c0-10.492 0-19.508 0-30-10.492 0-19.508 0-30 0 0-10.492 0-19.508 0-30-5.246 0-9.754 0-15 0v90h15c0-10.492 0-19.508 0-30z" fill="#e82e68"/></g></svg>